#!OML:ASF G:\acrobat\cartwheel_test\acrobat_wednesday\Session 1\acrobatwednesday.ASF
:FULLY-SPECIFIED
:DEGREES
96
root 10.1035 14.576 3.35229 -201.2 89.4012 -197.475
lowerback 0.337551 -0.44507 0.437416
upperback 1.83818 -0.588293 0.386233
thorax 1.69246 -0.28474 0.143887
lowerneck -21.1026 -12.1125 -14.2788
upperneck 24.9265 -15.8039 11.677
head 14.22 -6.71716 3.88577
rclavicle 3.92716e-015 -7.35503e-015
rhumerus 0 0 0
rradius 0
rwrist 0
rhand 0 0
rfingers 0
rthumb 0 0
lclavicle 3.92716e-015 -7.35503e-015
lhumerus 0 0 0
lradius 0
lwrist 0
lhand 0 0
lfingers 0
lthumb 0 0
rfemur -18.1947 -10.7404 11.1861
rtibia 56.5846
rfoot 11.2247 12.8161
rtoes -20.7985
lfemur -20.6252 8.28809 -9.74341
ltibia 58.8013
lfoot 21.8876 6.10206
ltoes -17.5392
97
root 10.0985 14.5773 3.35086 -212.174 89.3748 -208.511
lowerback 0.262816 -0.424758 0.416115
upperback 1.8338 -0.561112 0.319267
thorax 1.72946 -0.27108 0.0869759
lowerneck -20.9277 -11.9408 -14.1448
upperneck 24.674 -15.6106 11.7393
head 14.0389 -6.62764 3.93709
rclavicle 4.33444e-015 -5.96354e-016
rhumerus 0 0 0
rradius 0
rwrist 0
rhand 0 0
rfingers 0
rthumb 0 0
lclavicle 4.33444e-015 -5.96354e-016
lhumerus 0 0 0
lradius 0
lwrist 0
lhand 0 0
lfingers 0
lthumb 0 0
rfemur -18.2967 -10.7388 11.0584
rtibia 56.5931
rfoot 11.1351 12.8157
rtoes -21.3371
lfemur -20.6809 8.33966 -9.88854
ltibia 58.7461
lfoot 21.8784 6.03314
ltoes -17.2648
98
root 10.0947 14.5792 3.35147 -222.299 89.3029 -218.659
lowerback 0.208552 -0.403093 0.326103
upperback 1.86267 -0.53107 0.258429
thorax 1.78981 -0.256834 0.0749416
lowerneck -20.6492 -11.6692 -13.9748
upperneck 24.2133 -15.3037 11.9034
head 13.7404 -6.4823 4.04813
rclavicle -1.67414e-015 1.39149e-015
rhumerus 0 0 0
rradius 0
rwrist 0
rhand 0 0
rfingers 0
rthumb 0 0
lclavicle -1.67414e-015 1.39149e-015
lhumerus 0 0 0
lradius 0
lwrist 0
lhand 0 0
lfingers 0
lthumb 0 0
rfemur -18.3214 -10.7404 10.9014
rtibia 56.5935
rfoot 11.0015 12.8885
rtoes -21.8993
lfemur -20.6887 8.37193 -10.0434
ltibia 58.6942
lfoot 21.7612 6.05581
ltoes -17.6499
99
root 10.0924 14.5804 3.35356 -227.569 89.2384 -223.931
lowerback 0.16749 -0.372964 0.262065
upperback 1.89425 -0.489767 0.211968
thorax 1.84545 -0.236651 0.0633842
lowerneck -20.6292 -11.5603 -13.8049
upperneck 24.0843 -15.1795 11.8717
head 13.643 -6.4212 4.03503
rclavicle 6.01945e-015 -5.96354e-015
rhumerus 0 0 0
rradius 0
rwrist 0
rhand 0 0
rfingers 0
rthumb 0 0
lclavicle 6.01945e-015 -5.96354e-015
lhumerus 0 0 0
lradius 0
lwrist 0
lhand 0 0
lfingers 0
lthumb 0 0
rfemur -18.3148 -10.7724 10.8013
rtibia 56.5832
rfoot 11.0772 12.8059
rtoes -22.2244
lfemur -20.6891 8.41548 -10.1371
ltibia 58.6742
lfoot 21.684 6.20021
ltoes -18.5724
100
root 10.0902 14.5804 3.35612 -226.715 89.2754 -223.11
lowerback 0.116645 -0.352991 0.313224
upperback 1.87384 -0.464328 0.224755
thorax 1.85278 -0.223389 0.0479246
lowerneck -20.7227 -11.4648 -13.5427
upperneck 24.1662 -15.05 11.6297
head 13.6247 -6.36634 3.92483
rclavicle 6.26638e-016 -2.5842e-015
rhumerus 0 0 0
rradius 0
rwrist 0
rhand 0 0
rfingers 0
rthumb 0 0
lclavicle 6.26638e-016 -2.5842e-015
lhumerus 0 0 0
lradius 0
lwrist 0
lhand 0 0
lfingers 0
lthumb 0 0
rfemur -18.386 -10.7742 10.8797
rtibia 56.6117
rfoot 11.2642 12.7055
rtoes -22.7328
lfemur -20.7327 8.51183 -10.0759
ltibia 58.6625
lfoot 21.6337 6.33251
ltoes -19.3367
101
root 10.0875 14.5815 3.36016 -226.643 89.2693 -223.075
lowerback 0.0630406 -0.364573 0.270553
upperback 1.82855 -0.480753 0.264367
thorax 1.83707 -0.232949 0.111948
lowerneck -20.7141 -11.2549 -13.2409
upperneck 24.196 -14.7766 11.4019
head 13.5412 -6.24933 3.84909
rclavicle 5.7337e-015 1.19271e-015
rhumerus 0 0 0
rradius 0
rwrist 0
rhand 0 0
rfingers 0
rthumb 0 0
lclavicle 5.7337e-015 1.19271e-015
lhumerus 0 0 0
lradius 0
lwrist 0
lhand 0 0
lfingers 0
lthumb 0 0
rfemur -18.4562 -10.7708 10.9062
rtibia 56.6112
rfoot 11.2951 12.7226
rtoes -23.0104
lfemur -20.7713 8.56602 -10.0556
ltibia 58.6206
lfoot 21.5111 6.39881
ltoes -19.6471
102
root 10.0846 14.5837 3.36416 -227.278 89.203 -223.724
lowerback 0.0588859 -0.386827 0.179441
upperback 1.79348 -0.510133 0.278688
thorax 1.80434 -0.24941 0.177306
lowerneck -20.7371 -11.0975 -13.0842
upperneck 24.3062 -14.5706 11.2873
head 13.5345 -6.15659 3.82635
rclavicle 5.6079e-015 -3.57812e-015
rhumerus 0 0 0
rradius 0
rwrist 0
rhand 0 0
rfingers 0
rthumb 0 0
lclavicle 5.6079e-015 -3.57812e-015
lhumerus 0 0 0
lradius 0
lwrist 0
lhand 0 0
lfingers 0
lthumb 0 0
rfemur -18.4657 -10.7734 10.8417
rtibia 56.5392
rfoot 11.1277 12.7849
rtoes -22.5193
lfemur -20.7978 8.56362 -10.0974
ltibia 58.6071
lfoot 21.4027 6.53132
ltoes -20.1416
103
root 10.0819 14.5855 3.36652 -230.076 89.168 -226.494
lowerback 0.132623 -0.386503 0.145647
upperback 1.77346 -0.508931 0.263506
thorax 1.74254 -0.249269 0.181318
lowerneck -20.885 -11.0493 -13.0237
upperneck 24.5307 -14.4971 11.1957
head 13.6322 -6.11938 3.79619
rclavicle -5.82726e-015 4.57205e-015
rhumerus 0 0 0
rradius 0
rwrist 0
rhand 0 0
rfingers 0
rthumb 0 0
lclavicle -5.82726e-015 4.57205e-015
lhumerus 0 0 0
lradius 0
lwrist 0
lhand 0 0
lfingers 0
lthumb 0 0
rfemur -18.4439 -10.7668 10.7754
rtibia 56.5308
rfoot 11.0177 12.8627
rtoes -21.3132
lfemur -20.7595 8.60551 -10.135
ltibia 58.5933
lfoot 21.3405 6.63583
ltoes -20.5926
104
root 10.0787 14.587 3.36714 -233.478 89.1069 -229.864
lowerback 0.185025 -0.384532 0.118032
upperback 1.75849 -0.505513 0.230768
thorax 1.69769 -0.247772 0.163747
lowerneck -21.0024 -11.0256 -12.9653
upperneck 24.7286 -14.4565 11.0941
head 13.7172 -6.09986 3.75547
rclavicle -5.07639e-016 7.95139e-016
rhumerus 0 0 0
rradius 0
rwrist 0
rhand 0 0
rfingers 0
rthumb 0 0
lclavicle -5.07639e-016 7.95139e-016
lhumerus 0 0 0
lradius 0
lwrist 0
lhand 0 0
lfingers 0
lthumb 0 0
rfemur -18.4236 -10.7961 10.68
rtibia 56.5614
rfoot 11.0552 12.8344
rtoes -20.3831
lfemur -20.6971 8.63973 -10.2151
ltibia 58.5015
lfoot 21.3247 6.42258
ltoes -19.7117
105
root 10.0751 14.5881 3.36843 -231.09 89.0707 -227.454
lowerback 0.213715 -0.416782 0.130818
upperback 1.76665 -0.548567 0.246091
thorax 1.69008 -0.269133 0.171905
lowerneck -21.1303 -10.9596 -12.9391
upperneck 24.8657 -14.3502 11.0407
head 13.7774 -6.05034 3.75201
rclavicle 8.48135e-016 -7.55382e-015
rhumerus 0 0 0
rradius 0
rwrist 0
rhand 0 0
rfingers 0
rthumb 0 0
lclavicle 8.48135e-016 -7.55382e-015
lhumerus 0 0 0
lradius 0
lwrist 0
lhand 0 0
lfingers 0
lthumb 0 0
rfemur -18.3283 -10.8011 10.6811
rtibia 56.4553
rfoot 11.027 12.8268
rtoes -20.2438
lfemur -20.6808 8.63238 -10.2066
ltibia 58.4511
lfoot 21.3308 6.2918
ltoes -18.9926
106
root 10.0728 14.5889 3.37305 -228.141 89.0863 -224.506
lowerback 0.220925 -0.426925 0.137271
upperback 1.77095 -0.56249 0.28223
thorax 1.69079 -0.276223 0.205158
lowerneck -21.3184 -10.9025 -12.9073
upperneck 25.0545 -14.2597 10.9957
head 13.8748 -6.00229 3.7468
rclavicle -1.69472e-016 1.98785e-016
rhumerus 0 0 0
rradius 0
rwrist 0
rhand 0 0
rfingers 0
rthumb 0 0
lclavicle -1.69472e-016 1.98785e-016
lhumerus 0 0 0
lradius 0
lwrist 0
lhand 0 0
lfingers 0
lthumb 0 0
rfemur -18.2004 -10.7158 10.7675
rtibia 56.2204
rfoot 10.9031 12.9422
rtoes -20.2034
lfemur -20.7179 8.67006 -10.1199
ltibia 58.4912
lfoot 21.2903 6.42407
ltoes -19.3611
107
root 10.0708 14.59 3.37638 -229.426 89.0611 -225.844
lowerback 0.188174 -0.415376 0.0931304
upperback 1.7538 -0.547122 0.282739
thorax 1.69195 -0.269335 0.230416
lowerneck -21.4849 -10.8692 -12.8534
upperneck 25.2186 -14.2033 10.923
head 13.9579 -5.97202 3.71947
rclavicle -2.64283e-015 7.95139e-016
rhumerus 0 0 0
rradius 0
rwrist 0
rhand 0 0
rfingers 0
rthumb 0 0
lclavicle -2.64283e-015 7.95139e-016
lhumerus 0 0 0
lradius 0
lwrist 0
lhand 0 0
lfingers 0
lthumb 0 0
rfemur -18.273 -10.7072 10.7597
rtibia 56.2204
rfoot 10.9269 12.9324
rtoes -20.3665
lfemur -20.8005 8.69892 -10.1438
ltibia 58.5337
lfoot 21.2803 6.36806
ltoes -19.0087
108
root 10.0676 14.5917 3.37499 -232.687 88.9793 -229.14
lowerback 0.17897 -0.42 0.0646912
upperback 1.75852 -0.552693 0.251194
thorax 1.70193 -0.272304 0.21388
lowerneck -21.6848 -10.8314 -12.8062
upperneck 25.358 -14.1313 10.8475
head 14.0358 -5.93583 3.69381
rclavicle 1.66948e-016 -4.96962e-015
rhumerus 0 0 0
rradius 0
rwrist 0
rhand 0 0
rfingers 0
rthumb 0 0
lclavicle 1.66948e-016 -4.96962e-015
lhumerus 0 0 0
lradius 0
lwrist 0
lhand 0 0
lfingers 0
lthumb 0 0
rfemur -18.448 -10.8243 10.6305
rtibia 56.4254
rfoot 11.0302 12.8251
rtoes -20.4891
lfemur -20.8316 8.67619 -10.2804
ltibia 58.5033
lfoot 21.403 6.13211
ltoes -17.6093
109
root 10.0651 14.593 3.37586 -232.153 88.9477 -228.579
lowerback 0.174931 -0.421434 0.0884576
upperback 1.79927 -0.554348 0.246961
thorax 1.74575 -0.272529 0.196003
lowerneck -21.8899 -10.7996 -12.7571
upperneck 25.5136 -14.0699 10.7734
head 14.1236 -5.90321 3.66631
rclavicle 2.96779e-015 -5.96354e-015
rhumerus 0 0 0
rradius 0
rwrist 0
rhand 0 0
rfingers 0
rthumb 0 0
lclavicle 2.96779e-015 -5.96354e-015
lhumerus 0 0 0
lradius 0
lwrist 0
lhand 0 0
lfingers 0
lthumb 0 0
rfemur -18.4699 -10.8776 10.5987
rtibia 56.4819
rfoot 11.0224 12.8445
rtoes -20.2694
lfemur -20.7908 8.67785 -10.2927
ltibia 58.441
lfoot 21.3951 6.18343
ltoes -17.6246
110
root 10.0622 14.5931 3.37889 -229.711 88.9405 -226.11
lowerback 0.168818 -0.439136 0.0951864
upperback 1.8327 -0.578192 0.284713
thorax 1.78389 -0.284452 0.230371
lowerneck -22.0466 -10.7611 -12.6996
upperneck 25.6189 -13.9823 10.6374
head 14.1691 -5.8705 3.61842
rclavicle 3.04311e-015 1.98785e-016
rhumerus 0 0 0
rradius 0
rwrist 0
rhand 0 0
rfingers 0
rthumb 0 0
lclavicle 3.04311e-015 1.98785e-016
lhumerus 0 0 0
lradius 0
lwrist 0
lhand 0 0
lfingers 0
lthumb 0 0
rfemur -18.4482 -10.8629 10.6424
rtibia 56.491
rfoot 11.0005 12.9443
rtoes -19.8993
lfemur -20.7783 8.67672 -10.2327
ltibia 58.4582
lfoot 21.2751 6.28062
ltoes -18.0687
111
root 10.0598 14.5923 3.37891 -230.242 88.8833 -226.618
lowerback 0.14978 -0.461303 0.0573431
upperback 1.8596 -0.607413 0.294623
thorax 1.82281 -0.299615 0.261019
lowerneck -22.1185 -10.7038 -12.5847
upperneck 25.6513 -13.8693 10.4354
head 14.1505 -5.83542 3.5414
rclavicle 1.73005e-015 5.76476e-015
rhumerus 0 0 0
rradius 0
rwrist 0
rhand 0 0
rfingers 0
rthumb 0 0
lclavicle 1.73005e-015 5.76476e-015
lhumerus 0 0 0
lradius 0
lwrist 0
lhand 0 0
lfingers 0
lthumb 0 0
rfemur -18.4365 -10.9222 10.5829
rtibia 56.5702
rfoot 11.0673 12.9382
rtoes -19.8931
lfemur -20.7598 8.6661 -10.2775
ltibia 58.4795
lfoot 21.252 6.17792
ltoes -17.5192
112
root 10.0593 14.5922 3.38088 -230.742 88.8494 -227.075
lowerback 0.151517 -0.455632 0.0222029
upperback 1.8882 -0.599177 0.289992
thorax 1.85147 -0.295888 0.275962
lowerneck -22.2558 -10.6617 -12.4346
upperneck 25.7627 -13.8005 10.2601
head 14.1858 -5.80732 3.45946
rclavicle -2.93518e-016 -1.39149e-015
rhumerus 0 0 0
rradius 0
rwrist 0
rhand 0 0
rfingers 0
rthumb 0 0
lclavicle -2.93518e-016 -1.39149e-015
lhumerus 0 0 0
lradius 0
lwrist 0
lhand 0 0
lfingers 0
lthumb 0 0
rfemur -18.383 -10.9594 10.5471
rtibia 56.5905
rfoot 11.1366 12.8717
rtoes -20.3609
lfemur -20.7146 8.7062 -10.2928
ltibia 58.4369
lfoot 21.2479 6.21683
ltoes -17.5841
113
root 10.057 14.5937 3.38635 -228.834 88.8647 -225.142
lowerback 0.200229 -0.442982 0.0196296
upperback 1.88504 -0.582273 0.305927
thorax 1.82098 -0.287553 0.294391
lowerneck -22.4068 -10.6411 -12.3712
upperneck 25.9091 -13.7732 10.2085
head 14.2656 -5.7871 3.43266
rclavicle -5.816e-015 -3.97569e-016
rhumerus 0 0 0
rradius 0
rwrist 0
rhand 0 0
rfingers 0
rthumb 0 0
lclavicle -5.816e-015 -3.97569e-016
lhumerus 0 0 0
lradius 0
lwrist 0
lhand 0 0
lfingers 0
lthumb 0 0
rfemur -18.3585 -10.8874 10.6227
rtibia 56.547
rfoot 11.072 12.9375
rtoes -20.2781
lfemur -20.7157 8.75767 -10.2124
ltibia 58.3932
lfoot 21.2117 6.24636
ltoes -17.5821
